<?xml version="1.0" encoding="utf-8"?>
<!-- Generator: Adobe Illustrator 18.0.0, SVG Export Plug-In . SVG Version: 6.00 Build 0)  -->
<!DOCTYPE svg PUBLIC "-//W3C//DTD SVG 1.1//EN" "http://www.w3.org/Graphics/SVG/1.1/DTD/svg11.dtd">
<svg version="1.1" id="Capa_1" xmlns="http://www.w3.org/2000/svg" xmlns:xlink="http://www.w3.org/1999/xlink" x="0px" y="0px"
	 viewBox="0 0 195 195" enable-background="new 0 0 195 195" xml:space="preserve">
<g>
	<path fill="#8ABEB2" d="M167.9,122.8c-0.6-0.7-1.5-1.1-2.4-1.2c5.9-14.4,4.7-26.6,2.4-34.6c-2.7-9.5-7.3-15.2-7.5-15.4
		c-0.6-0.8-1.6-1.3-2.6-1.3c-0.2,0-3.5-0.2-8.4,0.7c-0.9-25.9-18.4-38.3-19.2-38.9c-0.8-0.5-1.7-0.8-2.7-0.6c-0.1,0-0.2,0-0.4,0.1
		c-7.3-18.7-27-28.4-27.8-28.8c-1-0.5-2.3-0.5-3.3,0.1c-0.7,0.4-17.5,9.5-25.5,26.8c-1.6-0.5-2.6-0.7-2.8-0.7
		c-0.9-0.1-1.8,0-2.6,0.5C64.6,30,46.7,42,45.1,68c-4.1-0.7-6.8-0.6-7-0.6c-1,0-1.9,0.5-2.6,1.2c-0.2,0.2-5.1,5.9-8,15.5
		c-2.5,8.2-4,20.7,2.1,35.7c-0.6,0-0.9,0-0.9,0c-1,0-1.9,0.4-2.6,1.1c-0.7,0.7-1,1.7-1,2.6c0,0.6,0.7,15.8,9.4,31.5
		c7.8,14.2,23.8,31.3,55.6,33.6c-0.3,6.7,7.7,5.1,7.2,0.2c34.3,0,51.9-17,60.6-31.4c9.5-15.7,10.6-31.3,10.7-32
		C168.9,124.5,168.6,123.6,167.9,122.8z M157.5,121.8c-7.7,0.5-20.2,2.1-32.9,7.3c-3.2-4.9-7.3-9.1-11.2-12.4
		c0.9-4.5,2.5-8.9,4.8-13.3c5.8-11.3,14.1-19.1,24.8-23.1c5.6-2.1,10.5-2.6,12.9-2.7C159,82.3,168.3,99.4,157.5,121.8z M88,111.2
		c-0.8-4.4-2.2-8.2-4.4-12.9c-2.3-4.8-4.8-8.7-7.6-12.1c0-0.2,0.1-0.5,0.1-0.7c3-20.2,17-29.1,21.6-31.5c4.7,2.7,22.1,14.7,21.3,33
		c0,1.1-0.1,1.9-0.1,1.9c-2.7,3.2-4.9,6.5-7.2,11c-2,3.9-3.5,7.9-4.6,11.9c-4.5-3.1-8-4.7-8.3-4.9c-0.9-0.5-2-0.5-3,0
		C95.5,107.1,92.3,108.6,88,111.2z M142.4,72.8c-0.5,0.2-1.1,0.4-1.6,0.6c-4.5,1.7-9.9,4.4-15.2,9c-2.7-13.7-10-22.9-16.2-28.5
		c7.1-10.4,15-13.8,18.2-14.8C131.3,42.2,142.3,53.1,142.4,72.8z M98,10.1c4.6,2.6,17.4,10.9,22.6,24c-4.8,2.4-11.1,6.9-16.9,15.2
		c-2.4-1.6-4.1-2.4-4.3-2.6c-0.9-0.4-2-0.5-2.9-0.1c-0.2,0.1-1.8,0.8-4.2,2.2c-4.7-7.7-9.5-12.3-15-16.3C83,20.4,93.9,12.7,98,10.1z
		 M68.1,36.4c1,0.3,2.2,0.4,4.6,1.7c2.4,1.3,9.3,7.8,13.6,14.9c-6.2,5.1-13.4,13.6-16.6,26.8c-5.1-4.5-10.2-7.2-14.5-9
		c-1-0.4-2-0.8-3-1.1C53,50.1,64.3,39.4,68.1,36.4z M34.4,86.5c1.7-5.8,4.3-9.9,5.6-11.9c2.4,0.2,7.2,0.8,12.8,3.1
		C63.4,82,71.6,90,77,101.5c2.9,6,3.8,9.8,4.4,14.4c-4.2,3.3-8.6,7.5-12.1,12.5c-11.9-5.2-23.8-7.2-31.5-8c0,0,0,0,0,0
		C32.3,108.8,31.2,97.5,34.4,86.5z M151.8,154c-11.1,18.1-28.9,27.4-53,27.7c-1.5,0.1-5.8,0-7.4-0.2C68.2,180,51.3,170,41.1,151.8
		c-5.4-9.7-7.5-19.4-8.2-24.6c6.9,0.4,21.8,2.1,36.2,9c1.7,0.8,3.7,0.2,4.7-1.4c6.4-11,19-18.2,23.4-20.4c4.3,2.3,16.7,9.8,22.8,21
		c0.9,1.7,2.9,2.3,4.7,1.6c14.5-6.5,29.5-7.8,36.5-8.1C160.2,134.2,157.8,144.2,151.8,154z"/>
</g>
</svg>
